<svg width="498" height="150" viewBox="0 0 498 150" fill="none" xmlns="http://www.w3.org/2000/svg">
<g filter="url(#filter0_d_3_96)">
<path d="M73.0641 1L424.936 1C461.95 1 492 31.1891 492 68.3746V70.9638C492 108.149 461.95 138.338 424.936 138.338H73.0641C36.05 138.338 6 108.149 6 70.9638V68.3746C6 31.1891 36.05 1 73.0641 1Z" fill="url(#paint0_linear_3_96)"/>
</g>
<g style="mix-blend-mode:lighten" opacity="0.3">
<path d="M414.238 5.16992H80.5445C42.4313 5.16992 11.5584 32.8781 11.5584 67.0861V69.4675C11.5584 72.1571 11.7612 74.8187 12.1377 77.4242C16.4819 46.9984 45.4433 23.4646 80.5445 23.4646H414.238C449.339 23.4646 478.272 46.9984 482.645 77.4242C494.704 77.4242 483.224 72.1571 483.224 69.4675V67.0861C483.224 32.9062 452.351 5.16992 414.238 5.16992Z" fill="url(#paint1_linear_3_96)"/>
</g>
<path d="M84.1523 86.9901C77.8696 86.9901 72.4963 84.7788 68.0323 80.3561C63.6096 75.8921 61.3983 70.5188 61.3983 64.2361C61.3983 57.9534 63.6096 52.6008 68.0323 48.1781C72.4963 43.7141 77.8696 41.4821 84.1523 41.4821C88.6576 41.4821 92.7289 42.5774 96.3663 44.7681C100.004 46.9588 102.794 49.8728 104.736 53.5101L96.0563 58.2221C93.4109 53.4274 89.4429 51.0301 84.1523 51.0301C80.5976 51.0301 77.5596 52.3321 75.0383 54.9361C72.5583 57.5401 71.3183 60.6401 71.3183 64.2361C71.3183 67.8321 72.5583 70.9321 75.0383 73.5361C77.5596 76.1401 80.5976 77.4421 84.1523 77.4421C89.4429 77.4421 93.4109 75.0448 96.0563 70.2501L104.736 74.9621C102.794 78.5994 100.004 81.5134 96.3663 83.7041C92.7289 85.8948 88.6576 86.9901 84.1523 86.9901ZM119.055 86.2461H109.693V39.7461H119.055V58.4081C120.833 55.8454 123.705 54.5641 127.673 54.5641C131.435 54.5641 134.369 55.8248 136.477 58.3461C138.627 60.8674 139.701 64.1948 139.701 68.3281V86.2461H130.339V69.9401C130.339 65.3521 128.665 63.0581 125.317 63.0581C123.457 63.0581 121.949 63.7401 120.791 65.1041C119.634 66.4681 119.055 68.4934 119.055 71.1801V86.2461ZM161.622 86.9281C156.952 86.9281 153.025 85.4608 149.842 82.5261C146.701 79.5501 145.13 75.6234 145.13 70.7461C145.13 66.1168 146.68 62.2728 149.78 59.2141C152.88 56.1141 156.766 54.5641 161.436 54.5641C165.776 54.5641 169.434 55.8868 172.41 58.5321C175.386 61.1774 176.874 64.8974 176.874 69.6921C176.874 70.8908 176.812 71.9861 176.688 72.9781H154.182C154.43 74.7554 155.278 76.1194 156.724 77.0701C158.171 77.9794 159.845 78.4341 161.746 78.4341C163.441 78.4341 164.95 78.1034 166.272 77.4421C167.595 76.7394 168.587 75.8921 169.248 74.9001L176.192 80.1081C174.704 82.2161 172.7 83.8901 170.178 85.1301C167.657 86.3288 164.805 86.9281 161.622 86.9281ZM154.43 66.8401H167.574C167.202 65.3108 166.417 64.1534 165.218 63.3681C164.02 62.5828 162.676 62.1901 161.188 62.1901C159.618 62.1901 158.192 62.5828 156.91 63.3681C155.629 64.1121 154.802 65.2694 154.43 66.8401ZM197.405 86.9281C192.776 86.9281 188.87 85.3988 185.687 82.3401C182.505 79.2814 180.913 75.4168 180.913 70.7461C180.913 66.0754 182.505 62.2108 185.687 59.1521C188.87 56.0934 192.776 54.5641 197.405 54.5641C200.588 54.5641 203.523 55.3908 206.209 57.0441C208.896 58.6974 210.901 60.8881 212.223 63.6161L204.039 67.9561C202.675 64.8561 200.464 63.3061 197.405 63.3061C195.421 63.3061 193.747 64.0088 192.383 65.4141C191.019 66.8194 190.337 68.5968 190.337 70.7461C190.337 72.8954 191.019 74.6728 192.383 76.0781C193.747 77.4834 195.421 78.1861 197.405 78.1861C200.464 78.1861 202.675 76.6361 204.039 73.5361L212.223 77.8761C210.901 80.6041 208.896 82.7948 206.209 84.4481C203.523 86.1014 200.588 86.9281 197.405 86.9281ZM238.119 86.2461L226.587 72.4201V86.2461H217.225V39.7461H226.587V66.3441L235.639 55.2461H246.737L235.329 69.2581L249.465 86.2461H238.119ZM264.693 86.2461V55.2461H274.055V58.4081C275.833 55.8454 278.705 54.5641 282.673 54.5641C286.435 54.5641 289.369 55.8248 291.477 58.3461C293.627 60.8674 294.701 64.1948 294.701 68.3281V86.2461H285.339V69.9401C285.339 65.3521 283.665 63.0581 280.317 63.0581C278.457 63.0581 276.949 63.7401 275.791 65.1041C274.634 66.4681 274.055 68.4934 274.055 71.1801V86.2461H264.693ZM327.906 82.2781C324.724 85.3781 320.88 86.9281 316.374 86.9281C311.869 86.9281 308.025 85.3781 304.842 82.2781C301.66 79.1368 300.068 75.2928 300.068 70.7461C300.068 66.1994 301.66 62.3761 304.842 59.2761C308.025 56.1348 311.869 54.5641 316.374 54.5641C320.88 54.5641 324.724 56.1348 327.906 59.2761C331.089 62.3761 332.68 66.1994 332.68 70.7461C332.68 75.2928 331.089 79.1368 327.906 82.2781ZM311.414 76.1401C312.737 77.5041 314.39 78.1861 316.374 78.1861C318.358 78.1861 319.991 77.5041 321.272 76.1401C322.595 74.7761 323.256 72.9781 323.256 70.7461C323.256 68.5141 322.595 66.7161 321.272 65.3521C319.991 63.9881 318.358 63.3061 316.374 63.3061C314.39 63.3061 312.737 63.9881 311.414 65.3521C310.133 66.7161 309.492 68.5141 309.492 70.7461C309.492 72.9781 310.133 74.7761 311.414 76.1401ZM364.493 86.2461L359.161 69.8781L353.891 86.2461H344.467L334.237 55.2461H344.281L349.675 74.2801L355.565 55.2461H362.757L368.647 74.2801L374.041 55.2461H384.085L373.917 86.2461H364.493ZM428.735 68.2661L413.049 52.5801H421.605L437.291 68.2661L421.605 83.9521H413.049L428.735 68.2661Z" fill="white"/>
<defs>
<filter id="filter0_d_3_96" x="0" y="0" width="498" height="149.338" filterUnits="userSpaceOnUse" color-interpolation-filters="sRGB">
<feFlood flood-opacity="0" result="BackgroundImageFix"/>
<feColorMatrix in="SourceAlpha" type="matrix" values="0 0 0 0 0 0 0 0 0 0 0 0 0 0 0 0 0 0 127 0" result="hardAlpha"/>
<feOffset dy="5"/>
<feGaussianBlur stdDeviation="3"/>
<feColorMatrix type="matrix" values="0 0 0 0 0.0470588 0 0 0 0 0.156863 0 0 0 0 0.266667 0 0 0 0.2 0"/>
<feBlend mode="normal" in2="BackgroundImageFix" result="effect1_dropShadow_3_96"/>
<feBlend mode="normal" in="SourceGraphic" in2="effect1_dropShadow_3_96" result="shape"/>
</filter>
<linearGradient id="paint0_linear_3_96" x1="235.268" y1="-52.1615" x2="235.268" y2="196.128" gradientUnits="userSpaceOnUse">
<stop stop-color="#376D2D"/>
<stop offset="0.197917" stop-color="#3C8640"/>
<stop offset="0.390625" stop-color="#358640"/>
<stop offset="1" stop-color="#316270"/>
</linearGradient>
<linearGradient id="paint1_linear_3_96" x1="247.681" y1="43.6644" x2="248.114" y2="4.60926" gradientUnits="userSpaceOnUse">
<stop offset="0.62" stop-color="white" stop-opacity="0"/>
<stop offset="0.76" stop-color="white" stop-opacity="0.37"/>
<stop offset="0.93" stop-color="white" stop-opacity="0.82"/>
<stop offset="1" stop-color="white"/>
</linearGradient>
</defs>
</svg>
