<svg width="227" height="75" viewBox="0 0 227 75" fill="none" xmlns="http://www.w3.org/2000/svg">
<g clip-path="url(#clip0_3_70)">
<path d="M189.167 0H37.8333C16.9386 0 0 16.7893 0 37.5C0 58.2107 16.9386 75 37.8333 75H189.167C210.061 75 227 58.2107 227 37.5C227 16.7893 210.061 0 189.167 0Z" fill="white"/>
<path fill-rule="evenodd" clip-rule="evenodd" d="M189.559 64.6371C174.661 64.6371 162.542 52.5542 162.542 37.6992C162.542 22.8442 174.661 10.7612 189.559 10.7612C204.457 10.7612 216.576 22.8442 216.576 37.6992C216.576 52.5542 204.457 64.6371 189.559 64.6371Z" fill="#7C47E1"/>
<path fill-rule="evenodd" clip-rule="evenodd" d="M189.559 56.0736C179.38 56.0736 171.133 47.8459 171.133 37.6994C171.133 27.5529 179.385 19.3252 189.559 19.3252C199.733 19.3252 207.985 27.5529 207.985 37.6994C207.985 47.8459 199.733 56.0736 189.559 56.0736Z" fill="#44CB86"/>
<path fill-rule="evenodd" clip-rule="evenodd" d="M38.2482 55.9671C28.1453 55.9671 19.9292 47.7703 19.9292 37.699C19.9292 27.6277 28.1453 19.4309 38.2482 19.4309C48.3511 19.4309 56.5672 27.6277 56.5672 37.699C56.5672 47.7703 48.3466 55.9671 38.2482 55.9671ZM65.2383 37.699C65.2383 22.8573 53.1327 10.7876 38.2482 10.7876C23.3638 10.7876 11.2582 22.8617 11.2582 37.699C11.2582 52.5363 23.3638 64.6104 38.2482 64.6104C45.3135 64.6104 51.7544 61.887 56.5672 57.4393V60.2866C56.5672 62.674 58.5075 64.606 60.9027 64.606C63.298 64.606 65.2383 62.6695 65.2383 60.2866V38.5611C65.2383 38.4771 65.2383 38.3931 65.2293 38.318C65.2293 38.1102 65.2383 37.9024 65.2383 37.699Z" fill="#7C47E1"/>
<path fill-rule="evenodd" clip-rule="evenodd" d="M98.0714 64.8007C83.0844 64.8007 70.894 52.6426 70.894 37.6992C70.894 22.7558 83.0888 10.5977 98.0714 10.5977C104.793 10.5977 111.243 13.0646 116.239 17.5388C118.027 19.1437 118.175 21.8936 116.569 23.6798C114.959 25.4659 112.202 25.6118 110.409 24.0069C107.019 20.9696 102.634 19.294 98.0714 19.294C87.8927 19.294 79.6142 27.5483 79.6142 37.6992C79.6142 47.8501 87.8927 56.1043 98.0714 56.1043C102.639 56.1043 107.023 54.4287 110.413 51.387C112.202 49.7821 114.959 49.9236 116.573 51.7097C118.183 53.4959 118.041 56.2414 116.252 57.8507C111.256 62.3337 104.802 64.8007 98.0759 64.8007H98.0714Z" fill="#7C47E1"/>
<path fill-rule="evenodd" clip-rule="evenodd" d="M162.913 56.8645L139.522 37.2966L162.913 18.1355C164.755 16.6146 165.009 13.8868 163.483 12.052C161.954 10.2128 159.224 9.9608 157.382 11.4861L132.042 32.4378V14.8108C132.042 12.4234 130.102 10.4913 127.706 10.4913C125.311 10.4913 123.371 12.4278 123.371 14.8108V60.1892C123.371 62.5766 125.311 64.5131 127.706 64.5131C130.102 64.5131 132.042 62.5766 132.042 60.1892V42.5622L157.382 63.5139C158.193 64.1815 159.17 64.5087 160.147 64.5087C161.392 64.5087 162.627 63.9781 163.483 62.9436C165.013 61.1044 164.755 58.381 162.913 56.8601V56.8645Z" fill="#7C47E1"/>
</g>
<defs>
<clipPath id="clip0_3_70">
<rect width="227" height="75" fill="white"/>
</clipPath>
</defs>
</svg>
